<?xml version="1.0" encoding="UTF-8"?>
<svg id="OBJECTS" xmlns="http://www.w3.org/2000/svg" xmlns:xlink="http://www.w3.org/1999/xlink" viewBox="0 0 512.99 241.06">
  <defs>
    <style>
      .cls-1 {
        clip-path: url(#clippath);
      }

      .cls-2, .cls-3, .cls-4 {
        fill: none;
      }

      .cls-2, .cls-5, .cls-6, .cls-7, .cls-8, .cls-9, .cls-10, .cls-11, .cls-12, .cls-13, .cls-14, .cls-15, .cls-16, .cls-17, .cls-18, .cls-19, .cls-20 {
        stroke-width: 0px;
      }

      .cls-3 {
        stroke: #60adab;
      }

      .cls-3, .cls-4 {
        stroke-linecap: round;
        stroke-miterlimit: 10;
      }

      .cls-3, .cls-5 {
        opacity: .48;
      }

      .cls-21 {
        clip-path: url(#clippath-1);
      }

      .cls-22 {
        clip-path: url(#clippath-3);
      }

      .cls-23 {
        clip-path: url(#clippath-2);
      }

      .cls-4 {
        stroke: #7fbecf;
        stroke-width: 2px;
      }

      .cls-5, .cls-7 {
        fill: #60adab;
      }

      .cls-6 {
        opacity: .3;
      }

      .cls-6, .cls-19 {
        fill: #fff;
      }

      .cls-8 {
        fill: #87d172;
      }

      .cls-9 {
        fill: #272828;
      }

      .cls-10 {
        fill: #0e3840;
      }

      .cls-11 {
        fill: #a9e0db;
      }

      .cls-12 {
        fill: #327c7a;
      }

      .cls-13 {
        fill: #7f9ca1;
      }

      .cls-14 {
        fill: #9ef586;
      }

      .cls-15 {
        fill: #80d1d1;
      }

      .cls-16 {
        fill: #6496a3;
      }

      .cls-17 {
        fill: #edcf3e;
      }

      .cls-18 {
        fill: #f49000;
      }

      .cls-20 {
        fill: #e91f00;
      }
    </style>
    <clipPath id="clippath">
      <path class="cls-2" d="m37.51,209.72l-2.98-.81v-9.54c0-1.33-1.07-2.4-2.4-2.4h0c-1.36,0-2.45-1.13-2.4-2.48l1.54-44.47S108.08,61.82,200.62,28.17h166.63l-9.5,17.37s11.67,6.24,13.3,18.18c1.63,11.94,2.71,89.29,2.71,89.29l10.86,18.45v35.97h-7.91c-1.33,0-7.53-1.11-7.53-2.43l-1.06-8.28c0-18.24-8.6-24.72-26.84-24.72h-13.19c-18.24,0-28.9,14.79-28.9,33.03v7.49l-174.13-.88-.07-6.09-84.46,1.9h0c-.02,1.57-1.52,2.7-3.03,2.29Z"/>
    </clipPath>
    <clipPath id="clippath-1">
      <path class="cls-2" d="m125.69,102.43c10.92-8.74,42.53-33.36,62.57-48.95,11.24-8.74,25.06-13.48,39.3-13.48h42.39c6.72,0,13.17,2.67,17.92,7.42l1.76,1.76c7.29,7.29,9.44,18.27,5.43,27.77h0c-3.65,8.66-11.79,14.59-21.15,15.4l-147.1,12.84c-1.54.13-2.33-1.8-1.12-2.77Z"/>
    </clipPath>
    <clipPath id="clippath-2">
      <path class="cls-2" d="m328.73,44.32h18.11c2.01,0,3.83,1.2,4.61,3.05l15.06,35.48c1.37,3.23-.92,6.84-4.44,6.96l-5.29.18c-1.6.06-3.13-.66-4.12-1.92l-27.88-35.67c-2.57-3.29-.23-8.09,3.95-8.09Z"/>
    </clipPath>
    <clipPath id="clippath-3">
      <path class="cls-2" d="m77.65,104.81h3.94c12.36,0,24.31-4.44,33.67-12.51l64.35-55.48s-93.65,25.61-101.96,67.99Z"/>
    </clipPath>
  </defs>
  <g>
    <g class="cls-1">
      <path class="cls-7" d="m37.51,209.72l-1.21-.33c-1.04-.28-1.77-1.23-1.77-2.32v-7.71c0-1.33-1.07-2.4-2.4-2.4h0c-1.36,0-2.45-1.13-2.4-2.48l1.51-43.61c.02-.56.23-1.09.6-1.5,7.14-8.03,80.63-88.99,168.37-121.06.27-.1.56-.15.85-.15h162.15c1.82,0,2.98,1.95,2.11,3.55l-6.47,11.84c-.59,1.09-.26,2.44.76,3.14,3.36,2.32,10.23,8.07,11.45,17.02,1.54,11.31,2.6,81.26,2.7,88.65,0,.42.12.82.33,1.18l10.2,17.34c.22.37.33.79.33,1.22v32.92c0,1.33-1.07,2.4-2.4,2.4h-5.51c-1.33,0-2.4-1.07-2.4-2.4h0c0-18.24-14.79-33.03-33.03-33.03h-10.79c-19.57,0-35.43,15.86-35.43,35.43v14.28c0,1.33-1.07,2.4-2.4,2.4h-160.79c-1.31,0-2.38-1.05-2.4-2.36-.05-3.2-.07-9.25-.07-16.21,0-21.64-17.56-39.18-39.2-39.15-2.71,0-5.44,0-8.16,0-22.73.02-41.23,18.31-41.51,41.04h0c-.02,1.57-1.52,2.7-3.03,2.29Z"/>
      <path class="cls-12" d="m29.9,201.35c1.84.2,354.73,0,354.73,0v30.4H28.39l1.51-30.4Z"/>
      <path class="cls-12" d="m295.72,28.17l50.26,63.26c4.87,6.13,12.27,9.7,20.1,9.7h11.57l-3.35-82.96-78.58,10Z"/>
      <path class="cls-12" d="m282.76,203.85c-.11,0-.19-.74-.24-2.02-.92-21.28,12.76-40.46,33.07-46.86l67.75-21.34,9.24,92.13-109.81-21.91Z"/>
      <path class="cls-12" d="m127.13,192.53l114.48-21.44c8.43-1.58,15.92-6.37,20.88-13.36l34.08-48.02c6.53-9.2,7.92-21.1,3.68-31.56-3.89-9.59-8-19.75-8.04-19.82-.07-.13-146.96,41.58-166.13,47.02-1.38.39-2.76.69-4.18.9l-51.55,7.63c-2.96.44-5.84,1.28-8.58,2.49l-38.31,17.01c-11.01,4.89-18.5,15.38-19.53,27.39L.12,205.15c-1.19,13.81,6.36,26.9,18.92,32.78h0c9.97,4.67,21.61,4.07,31.05-1.59l66.12-39.67c3.37-2.02,7.07-3.43,10.93-4.15Z"/>
      <g class="cls-21">
        <path class="cls-11" d="m125.69,102.43c10.92-8.74,42.53-33.36,62.57-48.95,11.24-8.74,25.06-13.48,39.3-13.48h42.39c6.72,0,13.17,2.67,17.92,7.42l1.76,1.76c7.29,7.29,9.44,18.27,5.43,27.77h0c-3.65,8.66-11.79,14.59-21.15,15.4l-147.1,12.84c-1.54.13-2.33-1.8-1.12-2.77Z"/>
        <polygon class="cls-6" points="248.94 109.96 192.51 121.03 147.44 16.28 203.87 5.21 248.94 109.96"/>
      </g>
      <g class="cls-23">
        <path class="cls-11" d="m328.73,44.32h18.11c2.01,0,3.83,1.2,4.61,3.05l15.06,35.48c1.37,3.23-.92,6.84-4.44,6.96l-5.29.18c-1.6.06-3.13-.66-4.12-1.92l-27.88-35.67c-2.57-3.29-.23-8.09,3.95-8.09Z"/>
        <rect class="cls-6" x="324.91" y="-2.42" width="11.26" height="114.04" transform="translate(5.34 135.1) rotate(-23.28)"/>
      </g>
      <g class="cls-22">
        <path class="cls-11" d="m77.65,104.81h3.94c12.36,0,24.31-4.44,33.67-12.51l64.35-55.48s-93.65,25.61-101.96,67.99Z"/>
        <rect class="cls-6" x="111.24" y="24.29" width="11.26" height="114.04" transform="translate(-22.62 52.81) rotate(-23.28)"/>
      </g>
      <path class="cls-17" d="m46.87,139.67l20.77-18.97c.52-.48,1.21-.74,1.92-.74h10.35c1.57,0,2.84,1.27,2.84,2.84v1.43c0,1.03-.55,1.97-1.45,2.48l-31.12,17.55c-.68.39-1.5.47-2.25.24h0c-2.09-.66-2.68-3.33-1.06-4.81Z"/>
      <path class="cls-15" d="m32.52,162.5h4.79c1.98,0,3.3,2.05,2.48,3.85l-4.79,10.58c-1.21,2.67-5.21,1.81-5.21-1.12v-10.58c0-1.5,1.22-2.72,2.72-2.72Z"/>
      <g>
        <path class="cls-20" d="m375.64,118.59l-3.25-.6c-4.99-.92-9.78,2.37-10.7,7.35h0c-.92,4.99,2.37,9.78,7.35,10.7l7.21,1.34-.61-18.79Z"/>
        <path class="cls-18" d="m376.47,143.6l-1.89-.35c-2.89-.54-5.68,1.37-6.21,4.27h0c-.54,2.89,1.37,5.68,4.27,6.21l4.19.78-.36-10.91Z"/>
        <path class="cls-19" d="m373.27,150.11c-1.08-.2-1.79-1.23-1.59-2.31.2-1.08,1.23-1.79,2.31-1.59"/>
        <path class="cls-19" d="m371.77,125.64c-.29,1.57-1.8,2.61-3.37,2.32-1.57-.29-2.61-1.8-2.32-3.37.29-1.57,1.8-2.61,3.37-2.32,1.57.29,2.61,1.8,2.32,3.37Z"/>
      </g>
    </g>
    <g>
      <circle class="cls-9" cx="94.51" cy="199.04" r="34.78" transform="translate(-113.06 125.13) rotate(-45)"/>
      <circle class="cls-13" cx="94.51" cy="200.22" r="23.31" transform="translate(-122.06 246.2) rotate(-76.72)"/>
      <circle class="cls-9" cx="94.52" cy="200.22" r="16.48" transform="translate(-118.25 261.44) rotate(-80.78)"/>
    </g>
    <g>
      <circle class="cls-9" cx="332.83" cy="199.04" r="36.84" transform="translate(83.04 495.69) rotate(-80.78)"/>
      <circle class="cls-13" cx="332.83" cy="200.28" r="24.69"/>
      <circle class="cls-9" cx="332.83" cy="200.28" r="17.46" transform="translate(-51.31 142.61) rotate(-22.5)"/>
    </g>
    <circle class="cls-12" cx="327.97" cy="131.49" r="10.4"/>
    <path class="cls-19" d="m75.67,124.88c0,1.82-1.48,3.3-3.3,3.3s-3.3-1.48-3.3-3.3,1.48-3.3,3.3-3.3,3.3,1.48,3.3,3.3Z"/>
    <path class="cls-19" d="m67.79,127.02c-.08.81-.81,1.4-1.62,1.31-.81-.08-1.4-.81-1.31-1.62.08-.81.81-1.4,1.62-1.31s1.4.81,1.31,1.62Z"/>
    <path class="cls-3" d="m127.99,112.91v20.29c0,13.68,11.09,24.76,24.76,24.76h67.52"/>
    <rect class="cls-5" x="141.41" y="117.91" width="20.94" height="3.67" rx=".76" ry=".76"/>
  </g>
  <path class="cls-16" d="m334.88,131.56c0,3.64-2.95,6.6-6.6,6.6s-6.6-2.95-6.6-6.6,2.95-6.6,6.6-6.6,6.6,2.95,6.6,6.6Z"/>
  <path class="cls-4" d="m328.28,131.56l32.81.99c7.57.23,13.84-5.85,13.84-13.42h0c0-7.42,6.01-13.43,13.43-13.43h31.15"/>
  <g>
    <rect class="cls-14" x="423.67" y="71.79" width="75.83" height="143.89"/>
    <rect class="cls-8" x="423.67" y="127.11" width="75.83" height="88.58"/>
    <rect class="cls-10" x="434.67" y="86.77" width="53.81" height="18.92"/>
    <rect class="cls-14" x="481.61" y="182.74" width="6.87" height="18.92"/>
    <rect class="cls-14" x="471.26" y="182.74" width="6.87" height="18.92"/>
    <rect class="cls-14" x="460.9" y="182.74" width="6.87" height="18.92"/>
    <rect class="cls-14" x="415.35" y="99.9" width="8.32" height="11.59"/>
    <rect class="cls-14" x="451.91" y="60.2" width="19.35" height="11.59"/>
    <rect class="cls-8" x="410.17" y="215.69" width="102.83" height="11.59"/>
  </g>
</svg>