<?xml version="1.0" encoding="UTF-8"?>
<svg id="OBJECTS" xmlns="http://www.w3.org/2000/svg" viewBox="0 0 597.56 251.49">
  <defs>
    <style>
      .cls-1 {
        stroke: #e9f6fe;
        stroke-dasharray: 0 0 161 151;
        stroke-width: 4px;
      }

      .cls-1, .cls-2 {
        fill: none;
        stroke-miterlimit: 10;
      }

      .cls-2 {
        stroke: #a46535;
        stroke-width: 2px;
      }

      .cls-3 {
        opacity: .3;
      }

      .cls-3, .cls-4, .cls-5, .cls-6, .cls-7, .cls-8, .cls-9, .cls-10, .cls-11, .cls-12, .cls-13, .cls-14, .cls-15, .cls-16, .cls-17, .cls-18, .cls-19, .cls-20, .cls-21 {
        stroke-width: 0px;
      }

      .cls-3, .cls-17 {
        fill: #fff;
      }

      .cls-4 {
        fill: #74b843;
      }

      .cls-5 {
        fill: #4c565b;
      }

      .cls-6 {
        fill: #2b4349;
      }

      .cls-7 {
        fill: #87aa36;
      }

      .cls-8 {
        fill: #18161b;
      }

      .cls-9 {
        fill: #3d5963;
      }

      .cls-10 {
        fill: #0792c8;
      }

      .cls-11 {
        fill: #d0d9de;
      }

      .cls-12 {
        fill: #c9c9c9;
      }

      .cls-13 {
        fill: #ca531e;
      }

      .cls-14 {
        fill: #a3c53a;
      }

      .cls-15 {
        fill: #da5c4f;
      }

      .cls-16 {
        fill: #b3e3fb;
      }

      .cls-18 {
        fill: #ef6123;
      }

      .cls-19 {
        fill: #ea1d26;
      }

      .cls-20 {
        fill: #f48b1f;
      }

      .cls-21 {
        fill: #006798;
      }
    </style>
  </defs>
  <g>
    <polygon class="cls-14" points="39.65 110.12 57.57 161.39 49.57 163.8 58.95 166.37 70.53 195.92 55.09 193.5 71.63 200.41 80.73 212.67 2.54 211.14 9.16 192.7 26.96 186.77 9.87 188.65 23.57 151.17 39.1 145.53 25.03 145.33 39.65 110.12"/>
    <g>
      <polygon class="cls-4" points="25.18 153.03 33.82 147.45 23.57 151.17 9.87 188.65 12.27 188.38 25.18 153.03"/>
      <polygon class="cls-4" points="11.18 193.44 28.48 187.67 22.19 188.36 9.16 192.7 2.54 211.14 4.82 211.19 11.18 193.44"/>
      <polygon class="cls-4" points="40.74 113.24 39.65 110.12 25.03 145.33 27.43 145.37 40.74 113.24"/>
    </g>
    <g>
      <line class="cls-2" x1="40.78" y1="210.61" x2="40.78" y2="150.42"/>
      <line class="cls-2" x1="32.89" y1="160.59" x2="40.78" y2="169.81"/>
      <line class="cls-2" x1="50.49" y1="175.15" x2="40.78" y2="186.58"/>
    </g>
  </g>
  <g>
    <polygon class="cls-14" points="444.34 25.27 469.13 114.16 458.07 118.33 471.04 122.78 487.06 174 465.7 169.8 488.59 181.78 501.18 203.05 393 200.39 402.16 168.43 426.79 158.15 403.13 161.4 422.09 96.44 443.57 86.67 424.12 86.31 444.34 25.27"/>
    <g>
      <polygon class="cls-4" points="424.32 99.66 436.28 89.99 422.09 96.44 403.13 161.39 406.46 160.94 424.32 99.66"/>
      <polygon class="cls-4" points="404.95 169.71 428.89 159.71 420.18 160.91 402.16 168.43 393 200.39 396.15 200.47 404.95 169.71"/>
      <polygon class="cls-4" points="445.85 30.68 444.34 25.27 424.12 86.31 427.43 86.37 445.85 30.68"/>
    </g>
    <g>
      <line class="cls-2" x1="445.9" y1="199.48" x2="445.9" y2="95.14"/>
      <line class="cls-2" x1="434.98" y1="112.76" x2="445.9" y2="128.74"/>
      <line class="cls-2" x1="459.34" y1="138.01" x2="445.9" y2="157.81"/>
    </g>
  </g>
  <rect class="cls-14" y="199.46" width="500" height="25.91"/>
  <rect class="cls-7" y="213.77" width="500" height="11.6"/>
  <polyline class="cls-9" points="0 251.49 0 220.7 500 220.7 500 251.49"/>
  <ellipse class="cls-6" cx="265.68" cy="228.18" rx="197.63" ry="4.79"/>
  <line class="cls-1" y1="236.1" x2="597.56" y2="236.1"/>
  <g>
    <path class="cls-16" d="m92.23,123.73h-50.07c-9.19,0-16.64-7.45-16.64-16.64h0c0-9.19,7.45-16.64,16.64-16.64h50.07c9.19,0,16.64,7.45,16.64,16.64h0c0,9.19-7.45,16.64-16.64,16.64Z"/>
    <path class="cls-16" d="m71.18,105.49h-7.98c-9.19,0-16.64-7.45-16.64-16.64h0c0-9.19,7.45-16.64,16.64-16.64h7.98c9.19,0,16.64,7.45,16.64,16.64h0c0,9.19-7.45,16.64-16.64,16.64Z"/>
  </g>
  <g>
    <rect class="cls-16" x="301.1" y="23.5" width="95.69" height="27.04" rx="11.74" ry="11.74"/>
    <rect class="cls-16" x="344.24" y="11.42" width="33.52" height="27.04" rx="11.74" ry="11.74"/>
    <path class="cls-16" d="m341.77,38.46h-9.22c-10.62,0-19.23-8.61-19.23-19.23h0c0-10.62,8.61-19.23,19.23-19.23h9.22c10.62,0,19.23,8.61,19.23,19.23h0c0,10.62-8.61,19.23-19.23,19.23Z"/>
  </g>
  <g>
    <path class="cls-11" d="m449.4,202.18l2.24-13.53v-11.82c0-2.35,1.9-4.25,4.25-4.25h0c2.35,0,4.25,1.9,4.25,4.25v13.02l-2.36,13.74c-.35,2.04-2.12,3.53-4.19,3.53h0c-2.62,0-4.62-2.35-4.19-4.94Z"/>
    <path class="cls-18" d="m96.88,199.1c0-.53-2.73-27.69-4.35-43.76-.66-6.5,3.89-12.38,10.35-13.38l73.58-11.4,27.56-34.98c3.37-4.28,7.28-8.11,11.62-11.41l1.73-1.32c3.43-2.6,7.62-4.01,11.92-4.01h142.96c5.82,0,11.59,1.13,16.98,3.33h0c3.53,1.44,6.62,3.79,8.93,6.82l38,49.57c1.73,2.49,4.1,4.46,6.87,5.69h0c5.98,2.67,9.83,8.6,9.83,15.15v49.23H128.76l-31.88-9.54Z"/>
    <path class="cls-13" d="m96.65,196.6c.14,1.5.23,2.41.23,2.5l31.88,9.54h324.1v-12.04H96.65Z"/>
    <path class="cls-13" d="m180.09,163.5c-19.23,0-34.81,15.59-34.81,34.81,0,3.6.55,7.07,1.56,10.33h83.48c-1.32-19.09-15.64-45.14-50.23-45.14Z"/>
    <g>
      <g>
        <circle class="cls-8" cx="180.18" cy="200.17" r="31.46"/>
        <circle class="cls-12" cx="180.18" cy="200.17" r="21.4"/>
        <circle class="cls-5" cx="180.18" cy="200.17" r="19.58" transform="translate(-88.77 186.03) rotate(-45)"/>
        <circle class="cls-17" cx="180.18" cy="200.17" r="17.04"/>
        <circle class="cls-8" cx="180.18" cy="200.17" r="9.72" transform="translate(-88.77 186.03) rotate(-45)"/>
        <path class="cls-5" d="m185.81,200.17c0,3.11-2.52,5.63-5.63,5.63s-5.63-2.52-5.63-5.63,2.52-5.63,5.63-5.63,5.63,2.52,5.63,5.63Z"/>
      </g>
      <path class="cls-5" d="m178.88,214.89c0-.72.59-1.31,1.31-1.31h0c.72,0,1.31.58,1.31,1.31h0c0,.72-.59,1.31-1.31,1.31h0c-.72,0-1.31-.59-1.31-1.31Zm-6.7-.83c-.63-.35-.84-1.16-.49-1.79h0c.37-.63,1.17-.84,1.8-.49h0c.63.37.84,1.17.49,1.8h0c-.25.42-.7.66-1.14.66h0c-.22,0-.45-.05-.66-.18Zm14.23-.49c-.37-.63-.16-1.43.47-1.8h0c.63-.35,1.43-.14,1.8.49h0c.36.62.15,1.43-.49,1.79h0c-.21.13-.43.18-.66.18h0c-.45,0-.89-.24-1.13-.66Zm-20.11-5.36h0c-.37-.63-.15-1.43.49-1.8h0c.62-.37,1.42-.14,1.79.49h0c.37.62.16,1.42-.47,1.79h0c-.21.12-.43.18-.66.18h0c-.46,0-.89-.24-1.14-.66Zm25.97.45c-.63-.35-.85-1.16-.49-1.79h0c.37-.63,1.17-.84,1.8-.49h0c.62.37.84,1.17.47,1.8h0c-.24.42-.68.66-1.14.66h0c-.22,0-.45-.05-.64-.18Zm-28.12-8.45c0-.74.59-1.31,1.31-1.31h0c.72-.01,1.31.58,1.31,1.3h0c0,.74-.58,1.31-1.31,1.33h0c-.72,0-1.31-.59-1.31-1.31Zm29.43,0v-.09h0c0-.72.59-1.31,1.31-1.31h0c.72,0,1.31.58,1.31,1.31h0v.03h0v.03h0c0,.74-.59,1.31-1.31,1.31h0c-.71,0-1.29-.57-1.31-1.28Zm-26.81-6.23c-.63-.35-.85-1.16-.49-1.79h0c.36-.63,1.16-.85,1.79-.49h0c.63.35.85,1.17.49,1.79h0c-.24.43-.68.67-1.14.67h0c-.22,0-.45-.07-.64-.18Zm25-.55c-.37-.63-.16-1.43.47-1.79h0c.63-.37,1.43-.16,1.8.46h0c.36.63.15,1.43-.47,1.8h0c-.21.12-.45.18-.67.18h0c-.45,0-.88-.24-1.13-.66Zm-20.11-5.32c-.37-.62-.16-1.43.47-1.79h0c.63-.37,1.43-.16,1.8.47h0c.35.62.15,1.43-.47,1.79h0c-.21.13-.43.18-.67.18h0c-.45,0-.89-.24-1.13-.66Zm15.18.43c-.62-.35-.84-1.16-.47-1.79h0c.35-.63,1.16-.84,1.79-.49h0c.63.35.85,1.17.49,1.8h0c-.24.42-.68.66-1.14.66h0c-.22,0-.45-.07-.66-.18Zm-8.02-3.08c0-.72.59-1.31,1.31-1.31h0c.72,0,1.31.58,1.31,1.3h0c0,.74-.58,1.33-1.3,1.33h0c-.74,0-1.33-.59-1.33-1.31Z"/>
    </g>
    <path class="cls-13" d="m385.43,163.5c19.23,0,34.81,15.59,34.81,34.81,0,3.6-.55,7.07-1.56,10.33h-83.48c1.32-19.09,15.64-45.14,50.23-45.14Z"/>
    <g>
      <g>
        <circle class="cls-8" cx="383.5" cy="200.17" r="31.46"/>
        <circle class="cls-12" cx="383.5" cy="200.17" r="21.4"/>
        <circle class="cls-5" cx="383.5" cy="200.17" r="19.58" transform="translate(53.18 479.51) rotate(-67.78)"/>
        <circle class="cls-17" cx="383.5" cy="200.17" r="17.04"/>
        <circle class="cls-8" cx="383.5" cy="200.17" r="9.72" transform="translate(52.49 478.7) rotate(-67.64)"/>
        <path class="cls-5" d="m377.88,200.17c0,3.11,2.52,5.63,5.63,5.63s5.63-2.52,5.63-5.63-2.52-5.63-5.63-5.63-5.63,2.52-5.63,5.63Z"/>
      </g>
      <path class="cls-5" d="m383.49,216.2h0c-.72,0-1.31-.59-1.31-1.31h0c0-.74.59-1.31,1.31-1.31h0c.72,0,1.31.59,1.31,1.31s-.59,1.31-1.31,1.31Zm7.36-1.96h0c-.45,0-.89-.24-1.14-.66h0c-.35-.63-.15-1.43.49-1.8h0c.63-.35,1.43-.14,1.8.49h0c.35.63.15,1.43-.49,1.79-.21.13-.43.18-.66.18Zm-14.71-.01h0c-.22,0-.45-.05-.66-.18h0c-.63-.35-.84-1.17-.49-1.79h0c.37-.63,1.17-.84,1.8-.49h0c.63.37.84,1.17.47,1.8-.24.42-.68.66-1.13.66Zm20.09-5.36h0c-.22,0-.45-.07-.66-.18h0c-.63-.37-.84-1.17-.47-1.79h0c.37-.63,1.17-.85,1.79-.49h0c.63.37.85,1.17.49,1.8h0c-.25.42-.68.66-1.14.66Zm-25.47-.03h0c-.46,0-.91-.24-1.14-.66h0c-.37-.63-.14-1.43.47-1.8h0c.63-.35,1.43-.14,1.8.49h0c.37.63.15,1.43-.49,1.79-.2.13-.42.18-.64.18Zm27.45-7.32h0c-.74-.01-1.31-.59-1.31-1.33h0c0-.72.59-1.31,1.31-1.3h0c.72,0,1.31.58,1.31,1.31s-.59,1.31-1.31,1.31Zm-29.43-.04h0c-.72,0-1.31-.58-1.31-1.31h0v-.03h0v-.03h0c0-.74.59-1.31,1.31-1.31h0c.72,0,1.31.59,1.31,1.31h0v.09c-.03.71-.6,1.28-1.31,1.28Zm27.48-7.32h0c-.46,0-.91-.24-1.14-.66h0c-.37-.63-.14-1.45.49-1.8h0c.63-.37,1.43-.14,1.79.49h0c.37.63.14,1.43-.49,1.79-.2.12-.42.18-.64.18Zm-25.48-.08h0c-.22,0-.46-.07-.67-.18h0c-.62-.37-.83-1.17-.47-1.8h0c.37-.62,1.17-.83,1.8-.46h0c.63.35.84,1.16.47,1.79-.25.42-.68.66-1.13.66Zm20.11-5.32h0c-.24,0-.46-.05-.67-.18h0c-.62-.35-.83-1.17-.47-1.79h0c.37-.63,1.17-.84,1.8-.47h0c.63.35.84,1.17.47,1.79-.24.42-.68.66-1.13.66Zm-14.71-.04h0c-.46,0-.91-.24-1.14-.66h0c-.37-.63-.15-1.45.49-1.8h0c.63-.35,1.43-.14,1.79.49h0c.37.63.15,1.43-.47,1.79-.21.12-.43.18-.66.18Zm7.35-1.95h0c-.72,0-1.3-.59-1.3-1.33h0c0-.72.59-1.3,1.31-1.3h0c.72,0,1.31.59,1.31,1.31s-.59,1.31-1.33,1.31Z"/>
    </g>
    <path class="cls-10" d="m205.68,128.09l29.61-39.18-22.97-2.03c-2.96,2.34-6.6,6.56-8.29,8.71l-24.02,30.49,18.33,4.6c2.75.69,5.64-.33,7.35-2.59Z"/>
    <path class="cls-21" d="m206.75,102.9s.03-.04.05-.06c4.34-5.49,11.19-8.38,18.15-7.77l5.32.47,5.01-6.63-22.97-2.03c-2.96,2.34-6.6,6.56-8.29,8.71l-24.02,30.49,7.09,1.78,19.66-24.96Z"/>
    <path class="cls-3" d="m212.31,86.89c-2.66,2.1-5.85,5.7-7.7,7.97-.92,11.83-1.54,23.68-2,35.54,1.19-.47,2.26-1.24,3.07-2.31l16.58-21.95c.53-6.09,1-12.18,1.25-18.27l-11.2-.99Z"/>
    <path class="cls-10" d="m214.32,131.82l26.06-42.32h69.68c3,0,5.44,2.43,5.44,5.44v30.75c0,3.39-2.74,6.13-6.13,6.13h-95.04Z"/>
    <path class="cls-21" d="m240.38,89.5l-3.93,6.39h51.29c10.18,0,18.43,8.25,18.43,18.43v17.5h3.19c3.39,0,6.13-2.74,6.13-6.13v-30.75c0-3-2.43-5.44-5.44-5.44h-69.68Z"/>
    <path class="cls-10" d="m320.87,94.94v29.26c0,4.21,3.41,7.62,7.62,7.62h66.6c6.19,0,9.8-6.98,6.22-12.03l-19.82-27.99c-1.02-1.44-2.67-2.3-4.44-2.3h-50.76c-3,0-5.44,2.43-5.44,5.44Z"/>
    <path class="cls-21" d="m401.32,119.79l-19.82-27.99c-1.02-1.44-2.67-2.3-4.44-2.3h-50.76c-7.01,0-5.44,4.11-5.23,6.55h46.87c1.76,0,3.42.86,4.44,2.3l19.82,25.47c1.81,2.56,1.77,5.62.49,8.01h2.41c6.19,0,9.8-6.98,6.22-12.03Z"/>
    <rect class="cls-13" x="290.31" y="143.75" width="20.71" height="5.27" rx="1.75" ry="1.75"/>
    <rect class="cls-19" x="290.31" y="141.11" width="20.71" height="5.27" rx="1.75" ry="1.75"/>
    <path class="cls-11" d="m97.41,197.9l13.53,2.24h11.82c2.35,0,4.25,1.9,4.25,4.25h0c0,2.35-1.9,4.25-4.25,4.25h-13.02l-13.74-2.36c-2.04-.35-3.53-2.12-3.53-4.19h0c0-2.62,2.35-4.62,4.94-4.19Z"/>
    <path class="cls-11" d="m459.09,194.35l-13.53,2.24h-11.82c-2.35,0-4.25,1.9-4.25,4.25h0c0,2.35,1.9,4.25,4.25,4.25h13.02l13.74-2.36c2.04-.35,3.53-2.12,3.53-4.19h0c0-2.62-2.35-4.62-4.94-4.19Z"/>
    <path class="cls-15" d="m438.3,163.5c0,5.02,5.76,9.08,12.87,9.08.58,0,1.14-.04,1.69-.09v-13.09c0-1.71-.27-3.38-.76-4.96-.31-.02-.62-.03-.93-.03-7.11,0-12.87,4.07-12.87,9.08Z"/>
    <path class="cls-20" d="m442.19,165.93c0,3.67,4.22,6.65,9.42,6.65.42,0,.83-.03,1.24-.06v-9.58c0-1.25-.2-2.47-.56-3.63-.23-.01-.45-.02-.68-.02-5.2,0-9.42,2.98-9.42,6.65Z"/>
    <path class="cls-11" d="m97.35,180.9l-14.53-22.89,7.69-.96c5.13-.64,9.49,3.74,8.81,8.87l-1.97,14.98Z"/>
    <rect class="cls-20" x="95.3" y="182.92" width="5.46" height="15.54"/>
    <path class="cls-13" d="m298.45,202.67h-54.49c-7.51,0-14.24-4.75-16.76-11.82l-12.59-35.29c-.69-1.92-1.04-3.94-1.04-5.98v-17.76h1.51v17.76c0,1.87.32,3.71.95,5.47l12.59,35.29c2.31,6.47,8.48,10.82,15.35,10.82h54.49c8.98,0,16.29-7.31,16.29-16.29v-50.79h1.51v50.79c0,9.81-7.99,17.8-17.8,17.8Z"/>
    <path class="cls-19" d="m221.33,138.15l-6.54-1.63c-.9-.22-1.54-1.03-1.54-1.96v-10c0-.93.63-1.74,1.54-1.96l6.54-1.63c1.28-.32,2.51.65,2.51,1.96v13.26c0,1.32-1.24,2.28-2.51,1.96Z"/>
    <polygon class="cls-3" points="295.95 131.82 273.11 131.82 254.53 89.5 277.38 89.5 295.95 131.82"/>
    <polygon class="cls-3" points="376.63 131.82 353.78 131.82 335.2 89.5 358.05 89.5 376.63 131.82"/>
  </g>
</svg>