<?xml version="1.0" encoding="UTF-8"?>
<svg id="Layer_1" data-name="Layer 1" xmlns="http://www.w3.org/2000/svg" xmlns:xlink="http://www.w3.org/1999/xlink" viewBox="0 0 429.1 293.72">
  <defs>
    <style>
      .cls-1 {
        fill: url(#linear-gradient);
      }

      .cls-1, .cls-2, .cls-3, .cls-4, .cls-5, .cls-6, .cls-7, .cls-8, .cls-9, .cls-10, .cls-11, .cls-12, .cls-13, .cls-14, .cls-15, .cls-16, .cls-17, .cls-18, .cls-19, .cls-20, .cls-21, .cls-22, .cls-23, .cls-24, .cls-25, .cls-26, .cls-27, .cls-28, .cls-29, .cls-30, .cls-31 {
        stroke-width: 0px;
      }

      .cls-2 {
        fill: url(#radial-gradient);
      }

      .cls-3 {
        fill: url(#linear-gradient-11);
      }

      .cls-4 {
        fill: url(#linear-gradient-12);
      }

      .cls-5 {
        fill: url(#linear-gradient-13);
      }

      .cls-6 {
        fill: url(#linear-gradient-10);
      }

      .cls-7 {
        fill: url(#linear-gradient-17);
      }

      .cls-8 {
        fill: url(#linear-gradient-16);
      }

      .cls-9 {
        fill: url(#linear-gradient-15);
      }

      .cls-10 {
        fill: url(#linear-gradient-18);
      }

      .cls-11 {
        fill: url(#linear-gradient-14);
      }

      .cls-12 {
        fill: url(#linear-gradient-4);
      }

      .cls-13 {
        fill: url(#linear-gradient-2);
      }

      .cls-14 {
        fill: url(#linear-gradient-3);
      }

      .cls-15 {
        fill: url(#linear-gradient-8);
      }

      .cls-16 {
        fill: url(#linear-gradient-9);
      }

      .cls-17 {
        fill: url(#linear-gradient-7);
      }

      .cls-18 {
        fill: url(#linear-gradient-5);
      }

      .cls-19 {
        fill: url(#linear-gradient-6);
      }

      .cls-21 {
        fill: #f2f2f2;
      }

      .cls-22 {
        fill: #595959;
      }

      .cls-23 {
        fill: gray;
      }

      .cls-24 {
        fill: #444;
      }

      .cls-25 {
        fill: #bfbfbf;
      }

      .cls-26 {
        fill: #a6a6a6;
      }

      .cls-27 {
        fill: #666;
      }

      .cls-28 {
        fill: #969696;
      }

      .cls-29 {
        fill: #999;
      }

      .cls-30 {
        fill: #919191;
      }

      .cls-31 {
        fill: #fff;
      }
    </style>
    <linearGradient id="linear-gradient" x1="73.17" y1="167.88" x2="190.23" y2="244.6" gradientUnits="userSpaceOnUse">
      <stop offset="0" stop-color="#a1a1a1"/>
      <stop offset="1" stop-color="#2b2b2b"/>
    </linearGradient>
    <linearGradient id="linear-gradient-2" x1="137.33" y1="138.53" x2="214.33" y2="189" gradientTransform="translate(-9.9 1.06) rotate(-3.47) scale(1 1.05)" gradientUnits="userSpaceOnUse">
      <stop offset="0" stop-color="#a1a1a1"/>
      <stop offset="1" stop-color="#2b2b2b"/>
    </linearGradient>
    <linearGradient id="linear-gradient-3" x1="-139.78" y1="-240.7" x2="33.9" y2="-126.87" gradientTransform="translate(165.93 302.04) rotate(-.66)" xlink:href="#linear-gradient"/>
    <linearGradient id="linear-gradient-4" x1="309.2" y1="142.79" x2="311.43" y2="239.56" gradientUnits="userSpaceOnUse">
      <stop offset=".08" stop-color="#000"/>
      <stop offset=".48" stop-color="#666"/>
      <stop offset="1" stop-color="#000"/>
    </linearGradient>
    <linearGradient id="linear-gradient-5" x1="266.75" y1="146.14" x2="268.75" y2="233.35" gradientUnits="userSpaceOnUse">
      <stop offset="0" stop-color="#000"/>
      <stop offset=".48" stop-color="#4d4d4d"/>
      <stop offset="1" stop-color="#000"/>
    </linearGradient>
    <linearGradient id="linear-gradient-6" x1="291.23" y1="103.25" x2="273.01" y2="126.52" gradientUnits="userSpaceOnUse">
      <stop offset="0" stop-color="#e8e8e8"/>
      <stop offset=".6" stop-color="#7a7a7a"/>
    </linearGradient>
    <linearGradient id="linear-gradient-7" x1="271.6" y1="129.18" x2="290.25" y2="103.43" gradientUnits="userSpaceOnUse">
      <stop offset="0" stop-color="#7a7a7a"/>
      <stop offset=".6" stop-color="#545454"/>
    </linearGradient>
    <linearGradient id="linear-gradient-8" x1="332.31" y1="-171.7" x2="313.29" y2="-147.41" gradientTransform="translate(285.26 470.81) rotate(-70.43)" xlink:href="#linear-gradient-6"/>
    <linearGradient id="linear-gradient-9" x1="311.45" y1="-145.05" x2="330.55" y2="-171.43" gradientTransform="translate(285.26 470.81) rotate(-70.43)" xlink:href="#linear-gradient-7"/>
    <linearGradient id="linear-gradient-10" x1="555.95" y1="241.88" x2="542.26" y2="259.36" gradientTransform="translate(360.99 -430.18) rotate(72.06)" xlink:href="#linear-gradient-6"/>
    <linearGradient id="linear-gradient-11" x1="541.05" y1="261.14" x2="554.78" y2="242.18" gradientTransform="translate(360.99 -430.18) rotate(72.06)" xlink:href="#linear-gradient-7"/>
    <linearGradient id="linear-gradient-12" x1="555.95" y1="241.88" x2="542.26" y2="259.36" gradientTransform="translate(360.99 -430.18) rotate(72.06)" xlink:href="#linear-gradient-6"/>
    <linearGradient id="linear-gradient-13" x1="541.05" y1="261.14" x2="554.78" y2="242.18" gradientTransform="translate(360.99 -430.18) rotate(72.06)" xlink:href="#linear-gradient-7"/>
    <linearGradient id="linear-gradient-14" x1="763.77" y1="2.32" x2="742.55" y2="29.42" gradientTransform="translate(882.91 -217.79) rotate(144.43)" xlink:href="#linear-gradient-6"/>
    <linearGradient id="linear-gradient-15" x1="739.92" y1="32.3" x2="761.63" y2="2.32" gradientTransform="translate(882.91 -217.79) rotate(144.43)" xlink:href="#linear-gradient-7"/>
    <linearGradient id="linear-gradient-16" x1="591.56" y1="-232.08" x2="578.49" y2="-215.4" gradientTransform="translate(830.03 353.66) rotate(-141.72)" xlink:href="#linear-gradient-6"/>
    <linearGradient id="linear-gradient-17" x1="577.13" y1="-213.63" x2="590.52" y2="-232.12" gradientTransform="translate(830.03 353.66) rotate(-141.72)" xlink:href="#linear-gradient-7"/>
    <radialGradient id="radial-gradient" cx="207.42" cy="148.95" fx="207.42" fy="148.95" r="23.52" gradientTransform="translate(128.42 -8.95) scale(.64 1.1)" gradientUnits="userSpaceOnUse">
      <stop offset="0" stop-color="#fff"/>
      <stop offset=".9" stop-color="#7d7d7d"/>
    </radialGradient>
    <linearGradient id="linear-gradient-18" x1="364.33" y1="75.09" x2="382.68" y2="170.75" gradientUnits="userSpaceOnUse">
      <stop offset="0" stop-color="#999"/>
      <stop offset=".7" stop-color="#1c1c1c"/>
      <stop offset="1" stop-color="#707070"/>
    </linearGradient>
  </defs>
  <path class="cls-1" d="m45.07,144.83s48.12,47.46,173.98,110.92l36.09,26.97S126.64,226.01,45.07,144.83Z"/>
  <path class="cls-13" d="m113.92,127.48s42.97,28.76,128.69,65.35l13.59,23.52s-93.8-51.03-142.28-88.87Z"/>
  <path class="cls-14" d="m241.94,271.64S-47.79,112.51,30.6,74.95c0,0,5.56-12.01,74.39,4.83,0,0,49.5,8.73,7.61-19.7C70.71,31.66,0,0,0,0c0,0,81.03,27.7,148.37,70.24,5.47,3.46,41.37,42.76-33.25,33.82,0,0-90.37-14.63-15.39,25.67l190.06,109.14-47.85,32.76Z"/>
  <path class="cls-30" d="m222.62,232.35s-103.05-61.46-158.52-105.68l2.25-1s88.44,60.96,142.4,91.69l13.87,14.99Z"/>
  <path class="cls-12" d="m428.88,150.13c-.7-13.69-3.01-27.03-6.79-40.14-3.5-12.14-8.58-23.71-15.24-34.45-12.74-20.55-31.54-37.99-54.35-46.63-6.23-2.36-12.68-4.15-19.2-5.52.48.08-11.12-1.55-10.78-1.53-5.78-.46-11.59-.83-17.38-1.09-15.48-.14-37.67,2.2-49.7,8.01-11.47,5.54-21.75,13.46-30.32,22.87-16.42,18.03-26.33,43.29-31.22,66.99-9.52,46.17-2.23,99.89,28.46,137.12,11.33,13.75,25.98,24.75,42.64,31.18,20.35,7.85,42.59,8.25,63.9,4.5-1.23.2,26.05-5.84,39.17-13.45,12.61-7.32,23.44-17.35,32.42-28.8.41-.49,1.98-2.67,2.77-3.8,1.1-1.57,2.17-3.16,3.2-4.77,2.21-3.46,5.8-10.07,5.64-9.77,12.85-24.69,18.2-52.98,16.78-80.69Z"/>
  <path class="cls-18" d="m343.32,152.9c-.43-12.36-1.86-24.42-4.2-36.26-2.17-10.96-5.3-21.42-9.43-31.12-7.88-18.56-19.51-34.31-33.61-42.12-3.86-2.13-7.84-3.74-11.87-4.99.3.08-6.88-1.4-6.67-1.38-3.58-.41-7.16-.75-10.75-.99-9.57-.13-23.3,1.99-30.74,7.24-7.09,5-15.68,12.16-20.98,20.65-10.16,16.28-18.51,39.1-21.54,60.5-5.88,41.71-4.62,76.18,23.07,122.94,6.53,11.02,17.52,19.46,25.03,25.3,11.4,8.87,26.67,11.22,39.85,7.83-.76.19,16.11-5.27,24.23-12.15,7.8-6.61,14.5-15.67,20.05-26.01.26-.44,1.22-2.41,1.72-3.44.68-1.42,1.34-2.85,1.98-4.31,1.37-3.13,3.59-9.1,3.49-8.83,7.95-22.3,11.26-47.86,10.38-72.89Z"/>
  <ellipse class="cls-27" cx="264.78" cy="156.94" rx="61.5" ry="101.79"/>
  <path class="cls-20" d="m318.49,156.94c0,51.13-24.55,92.58-54.82,92.58s-54.82-41.45-54.82-92.58,24.55-92.58,54.82-92.58,54.82,41.45,54.82,92.58Z"/>
  <path class="cls-30" d="m310.31,155.07c0,45.46-21.56,82.31-48.15,82.31s-48.15-36.85-48.15-82.31,21.56-82.31,48.15-82.31,48.15,36.85,48.15,82.31Z"/>
  <path class="cls-24" d="m262.16,72.76c-26.59,0-48.15,36.85-48.15,82.31s21.56,82.31,48.15,82.31,48.15-36.85,48.15-82.31-21.56-82.31-48.15-82.31Zm0,161.23c-25.5,0-46.17-35.33-46.17-78.92s20.67-78.93,46.17-78.93,46.17,35.34,46.17,78.93-20.67,78.92-46.17,78.92Z"/>
  <path class="cls-24" d="m261.91,125.81v.06c.08,0,.16-.02.25-.03.08,0,.17.02.25.03v-.06c9.03-.97,16.53-18.41,18.73-34.81-5.75-4.67-12.19-7.29-18.98-7.29s-13.23,2.62-18.98,7.29c2.2,16.4,9.71,33.85,18.74,34.81Z"/>
  <path class="cls-20" d="m261.94,125.08v.05c.08,0,.14-.02.22-.03.08,0,.15.02.22.03v-.05c8.04-.86,14.71-16.38,16.67-30.97-5.12-4.15-10.85-6.48-16.89-6.48s-11.77,2.33-16.89,6.48c1.96,14.59,8.63,30.11,16.67,30.97Z"/>
  <path class="cls-24" d="m299.49,189.08c-7.44-11.72-19.73-19.08-27.72-10.94l-.02-.04c-.07.08-.13.18-.2.27-.07.08-.15.15-.22.22v.05c-7.32,9.79-7.75,32.04-4.04,48.14,13.75-3.72,25.44-17.94,32.21-37.7Z"/>
  <path class="cls-20" d="m296.22,189.06c-6.44-10.14-17.07-16.5-23.98-9.46v-.04c-.07.07-.13.15-.19.23-.06.07-.13.13-.19.19l.02.04c-6.35,8.46-6.71,27.7-3.51,41.64,11.88-3.22,22-15.52,27.85-32.6Z"/>
  <path class="cls-24" d="m252.09,177.39l.02-.04c-.07-.09-.14-.16-.21-.25-.06-.1-.12-.2-.19-.29l-.02.04c-7.66-9.11-20.26-3.24-28.19,7.6,5.99,20.73,17.19,36.25,30.68,41.59,4.37-15.67,4.85-37.97-2.09-48.65Z"/>
  <path class="cls-20" d="m251.43,178.79l.02-.04c-.06-.07-.12-.14-.18-.21-.06-.08-.11-.17-.16-.25l-.02.04c-6.6-7.86-17.47-2.79-24.31,6.55,5.16,17.88,14.82,31.27,26.46,35.87,3.77-13.51,4.18-32.75-1.8-41.96Z"/>
  <path class="cls-24" d="m246.44,144.63l.03.02c.03-.13.05-.28.08-.41.03-.13.08-.26.11-.39l-.03-.02c2.79-15.03-4.13-33.67-12.44-43.32-8.72,14.11-14.16,34.05-14.16,56.19,0,1.87.05,3.71.13,5.55,9.94,2.47,22.41-3.29,26.28-17.6Z"/>
  <path class="cls-20" d="m245.73,144.55l.02.02c.03-.11.05-.24.07-.36.03-.12.06-.23.09-.34l-.03-.02c2.44-13.1-3.6-29.35-10.84-37.76-7.59,12.29-12.34,29.68-12.34,48.97,0,1.63.05,3.23.12,4.83,8.66,2.15,19.53-2.87,22.91-15.34Z"/>
  <path class="cls-24" d="m278.62,149.41l-.03.02c-.03-.13-.05-.27-.08-.41-.04-.13-.07-.26-.1-.39l.03-.02c-2.8-15.03,4.13-33.67,12.44-43.32,8.72,14.1,14.16,34.05,14.16,56.19,0,1.87-.05,3.71-.13,5.55-9.94,2.47-22.42-3.29-26.29-17.61Z"/>
  <path class="cls-20" d="m279.33,149.33l-.02.02c-.02-.11-.05-.24-.07-.36-.03-.12-.06-.23-.09-.34l.02-.02c-2.43-13.1,3.6-29.34,10.84-37.76,7.59,12.29,12.34,29.68,12.34,48.97,0,1.63-.05,3.23-.11,4.83-8.66,2.15-19.53-2.86-22.91-15.34Z"/>
  <path class="cls-19" d="m269.8,143.92c.93-1.96,1.86-3.98,2.81-6.04,10.36-22.61,17.71-42.34,16.43-44.05-1.28-1.72-10.72,15.22-21.08,37.83-.95,2.07-1.87,4.11-2.76,6.11l4.59,6.15Z"/>
  <path class="cls-17" d="m266.39,139.36l2.12,2.83c9.92-21.74,17.36-39.64,16.8-40.4-.57-.76-8.95,15.9-18.92,37.57Z"/>
  <path class="cls-19" d="m269.8,143.92c.93-1.96,1.86-3.98,2.81-6.04,10.36-22.61,17.71-42.34,16.43-44.05-1.28-1.72-10.72,15.22-21.08,37.83-.95,2.07-1.87,4.11-2.76,6.11l4.59,6.15Z"/>
  <path class="cls-17" d="m266.39,139.36l2.12,2.83c9.92-21.74,17.36-39.64,16.8-40.4-.57-.76-8.95,15.9-18.92,37.57Z"/>
  <path class="cls-19" d="m269.8,143.92c.93-1.96,1.86-3.98,2.81-6.04,10.36-22.61,17.71-42.34,16.43-44.05-1.28-1.72-10.72,15.22-21.08,37.83-.95,2.07-1.87,4.11-2.76,6.11l4.59,6.15Z"/>
  <path class="cls-17" d="m266.39,139.36l2.12,2.83c9.92-21.74,17.36-39.64,16.8-40.4-.57-.76-8.95,15.9-18.92,37.57Z"/>
  <path class="cls-15" d="m258.49,138.84c-.77-2.15-1.57-4.33-2.39-6.55-9-24.26-17.41-42.71-18.78-41.22-1.38,1.49,4.8,22.36,13.8,46.62.82,2.22,1.64,4.38,2.44,6.49l4.93-5.34Z"/>
  <path class="cls-16" d="m254.84,142.8l2.27-2.46c-8.66-23.25-16.03-41.25-16.64-40.59-.61.66,5.77,19.74,14.38,43.05Z"/>
  <path class="cls-6" d="m270.64,164.24c1.38.9,2.78,1.8,4.23,2.71,15.77,9.88,29.02,15.77,29.58,13.15.56-2.61-11.77-12.75-27.55-22.62-1.44-.9-2.86-1.77-4.25-2.6l-2.01,9.37Z"/>
  <path class="cls-3" d="m272.12,157.3l-.92,4.31c15.15,9.43,27.41,16.03,27.66,14.88.25-1.15-11.61-9.65-26.74-19.19Z"/>
  <path class="cls-4" d="m270.64,164.24c1.38.9,2.78,1.8,4.23,2.71,15.77,9.88,29.02,15.77,29.58,13.15.56-2.61-11.77-12.75-27.55-22.62-1.44-.9-2.86-1.77-4.25-2.6l-2.01,9.37Z"/>
  <path class="cls-5" d="m272.12,157.3l-.92,4.31c15.15,9.43,27.41,16.03,27.66,14.88.25-1.15-11.61-9.65-26.74-19.19Z"/>
  <path class="cls-11" d="m259.53,171.84c-.09,2.51-.16,5.09-.23,7.71-.73,28.69,0,52.05,1.63,52.17,1.63.12,3.54-23.04,4.27-51.73.07-2.62.12-5.2.16-7.71l-5.83-.43Z"/>
  <path class="cls-9" d="m263.85,172.16l-2.68-.2c-.67,27.55-.64,49.52.08,49.57.72.06,1.87-21.83,2.6-49.37Z"/>
  <path class="cls-8" d="m251.91,155.6c-1.44.56-2.91,1.15-4.39,1.77-16.33,6.78-29.25,14.48-28.86,17.18.38,2.71,13.93-.6,30.25-7.38,1.49-.62,2.95-1.24,4.38-1.87l-1.38-9.7Z"/>
  <path class="cls-7" d="m252.94,162.78l-.64-4.46c-15.66,6.56-28,12.73-27.83,13.92.17,1.2,12.79-3.01,28.47-9.47Z"/>
  <path class="cls-2" d="m277.22,155.07c0,14.22-6.74,25.75-15.06,25.75s-15.07-11.53-15.07-25.75,6.74-25.75,15.07-25.75,15.06,11.53,15.06,25.75Z"/>
  <path class="cls-28" d="m271.09,155.07c0,8.43-4,15.26-8.93,15.26s-8.93-6.83-8.93-15.26,4-15.26,8.93-15.26,8.93,6.83,8.93,15.26Z"/>
  <path class="cls-20" d="m254.16,156.66c0-8.43,4-15.26,8.93-15.26,2.23,0,4.26,1.4,5.83,3.71-1.63-3.24-4.05-5.3-6.75-5.3-4.93,0-8.93,6.83-8.93,15.26,0,4.62,1.2,8.75,3.1,11.55-1.35-2.67-2.17-6.15-2.17-9.96Z"/>
  <path class="cls-31" d="m262.34,128.65v.04c-.06,0-.12-.01-.18-.02-.06,0-.12.02-.18.02v-.04c-3.63-.35-6.92-4.02-9.4-9.03,2.31,6.18,5.66,10.96,9.41,11.37v.04c.05,0,.11-.01.16-.02.05,0,.11.02.16.02v-.04c3.76-.4,7.1-5.18,9.41-11.37-2.48,5.02-5.77,8.68-9.4,9.03Z"/>
  <path class="cls-20" d="m256.45,137.54c0,2.2-1.04,3.98-2.33,3.98s-2.33-1.78-2.33-3.98,1.04-3.98,2.33-3.98,2.33,1.78,2.33,3.98Z"/>
  <path class="cls-28" d="m255.34,137.54c0,1.15-.54,2.09-1.22,2.09s-1.22-.94-1.22-2.09.55-2.09,1.22-2.09,1.22.94,1.22,2.09Z"/>
  <path class="cls-20" d="m272.41,138.34c0,2.2-1.04,3.98-2.33,3.98s-2.33-1.78-2.33-3.98,1.04-3.98,2.33-3.98,2.33,1.78,2.33,3.98Z"/>
  <path class="cls-28" d="m271.3,138.34c0,1.16-.54,2.09-1.22,2.09s-1.22-.94-1.22-2.09.55-2.09,1.22-2.09,1.22.93,1.22,2.09Z"/>
  <path class="cls-20" d="m276.84,161.04c0,2.2-1.04,3.98-2.33,3.98s-2.33-1.78-2.33-3.98,1.05-3.98,2.33-3.98,2.33,1.78,2.33,3.98Z"/>
  <path class="cls-28" d="m275.73,161.04c0,1.16-.55,2.09-1.22,2.09s-1.22-.94-1.22-2.09.55-2.09,1.22-2.09,1.22.93,1.22,2.09Z"/>
  <path class="cls-20" d="m264.49,176.17c0,2.2-1.04,3.98-2.33,3.98s-2.33-1.78-2.33-3.98,1.04-3.98,2.33-3.98,2.33,1.78,2.33,3.98Z"/>
  <path class="cls-28" d="m263.38,176.17c0,1.15-.55,2.09-1.22,2.09s-1.22-.94-1.22-2.09.55-2.09,1.22-2.09,1.22.94,1.22,2.09Z"/>
  <path class="cls-20" d="m252.02,160.64c0,2.2-1.04,3.98-2.33,3.98s-2.33-1.78-2.33-3.98,1.04-3.98,2.33-3.98,2.33,1.78,2.33,3.98Z"/>
  <path class="cls-28" d="m250.92,160.64c0,1.15-.55,2.09-1.23,2.09s-1.22-.94-1.22-2.09.54-2.09,1.22-2.09,1.23.94,1.23,2.09Z"/>
  <path class="cls-23" d="m283.47,33.54c-20.63-5.52-36.7.85-45.65,6.2-.85.72-1.75,1.48-2.77,2.35,7.64-3.43,15.76-5.28,24.17-5.28,45.5,0,82.38,53.96,82.38,120.52s-36.88,120.52-82.38,120.52c-5.12,0-10.12-.72-14.98-2.03,6.33,4.38,13.12,8.08,20.32,10.9.08,0,.15.01.23.01,49.18,0,89.05-58.11,89.05-129.79,0-60.18-31.24-109.21-70.36-123.4Z"/>
  <path class="cls-22" d="m386.11,245.37c.52-.75,1.01-1.52,1.52-2.27l2.12-6.18-8.32,11.35,2.75-11.01c-3.84,5.83-10.5,13.82-10.5,13.82,10.8-21.19,8.01-58.32,8.01-58.32-2.29,45.37-24.97,63.11-24.97,63.11,6.39-9.72,5.6-22.26,5.6-22.26-1.25,9.87-11.03,17.47-11.03,17.47.59-1.15.99-2.24,1.25-3.27,5.17-11.6,8.62-26.73,7.28-46.06,0,0-3.67,56.37-44.76,79.57,0,0-.41-.18-.04.19,29.66-4.45,44.74-21.62,44.74-21.62-.96,7.06-8.07,12.63-8.07,12.63l18.57-9.06c4.71-4.41,9.08-9.19,13.07-14.28.41-.49,1.98-2.67,2.78-3.8Z"/>
  <path class="cls-23" d="m183.1,135.5s-2.16-50.59,43.09-95.9c0,0-46.01,11.11-43.09,95.9Z"/>
  <path class="cls-25" d="m174.35,96.88s-1.09-25.63,21.83-48.58c0,0-23.31,5.62-21.83,48.58Z"/>
  <path class="cls-31" d="m198.63,188.73s7.61,43.92,40.21,70.52c0,0-33.82-13.45-40.21-70.52Z"/>
  <path class="cls-26" d="m319.13,221.01s20.09-31.1,14.15-54.9c0,0,1.59,21.02-14.15,54.9Z"/>
  <path class="cls-29" d="m257.61,42.51s40.77,3.43,60.34,49.44c0,0-7.93-48.12-60.34-49.44Z"/>
  <path class="cls-30" d="m279.15,148.65s6.01-18.62,8.12-10.16c0,0,4.89,12.69,7.93,7.8,0,0,5.55-12.3-3.97-40.85,0,0,28.56,42.44,2.91,48.39,0,0-3.7,1.59-7.93-8.99,0,0-1.06-7.93-5.29,9.52,0,0-1.44-.3-1.78-5.7Z"/>
  <path class="cls-30" d="m252.14,183.1s.82,20.83-4.4,13.15c0,0-9.55-10.9-10.79-4.89,0,0-1.04,14.33,18.95,39.4,0,0-44.13-31.97-20.66-47.33,0,0,3.12-2.95,11.23,6.08,0,0,3.97,7.55,1.8-11.46,0,0,1.54-.23,3.87,5.05Z"/>
  <path class="cls-31" d="m99.87,163.34s67.13,42.3,108.71,63.95l28.72,32.03s-91.22-51.56-137.42-95.98Z"/>
  <path class="cls-30" d="m281.41,186.35s16.27,18.32-7.76,40.32l-6.21,2.51-2.12-9.25s21.61-7.07,16.09-33.58Z"/>
  <path class="cls-30" d="m228.41,146.56s-1.91-23.42,11.41-41.04l-.37-.74,5.55,9.99s-12.06,4.03-16.59,31.79Z"/>
  <path class="cls-30" d="m263.71,90.67s12.07,3.93,17.04,11.2l-6.97,14.27s3.61-15.48-10.07-25.48Z"/>
  <path class="cls-30" d="m271.8,85.01s7.93,5.55,7.73,14.87l2.97-8.73-10.71-6.15Z"/>
  <path class="cls-30" d="m295.47,183.44s5.29,7.93-1.59,18.51l6.87-10.58.79-3.44-6.08-4.49Z"/>
  <path class="cls-10" d="m420.06,104.27l-6.3-15.94-24.5-26.17,7.35,20.09-33.18-37.36,16.96,38.99s-41.15-56.73-76.38-61.92c32.63,17.06,47.84,53.45,47.84,53.45l-1.48-1.37c-19.75-24.16-36.29-33.72-36.29-33.72,1.66,1.8,3.15,3.46,4.53,5.01,8.65,10.73,20.81,32.45,30.97,74.51,2.86,11.86-.14-30.77-.2-31.18-.11-.8.31-1.38,1.03-1.83,6.28,9.25,27.55,41.41,24.08,100.13,0,0,19.34-45.62-5.33-100.77.63.08,1.04.13,1.04.13l30.51,39.75-10.22-40.34s12.52,13.73,15.11,18.55c0,0,1.73-9.12-.85-15.45l15.31,15.45Z"/>
  <path class="cls-21" d="m267.17,229.34c-25.22,0-45.66-35.16-45.66-78.52,0-.18,0-.36,0-.53,0-.19,0-.39,0-.58,0-26.95,7.9-50.72,19.92-64.87-14.86,12.96-25.04,39.47-25.04,70.08,0,43.37,20.44,78.52,45.66,78.52,7.87,0,15.28-3.44,21.75-9.48-5.15,3.47-10.76,5.38-16.63,5.38Z"/>
</svg>